<svg width="112" height="48" viewBox="0 0 112 48" fill="none" xmlns="http://www.w3.org/2000/svg">
<path d="M17.4448 21.5C17.405 21.0028 17.2186 20.6151 16.8855 20.3366C16.5573 20.0582 16.0577 19.919 15.3865 19.919C14.959 19.919 14.6085 19.9712 14.335 20.0756C14.0666 20.1751 13.8677 20.3118 13.7384 20.4858C13.6092 20.6598 13.5421 20.8587 13.5371 21.0824C13.5272 21.2663 13.5595 21.4329 13.634 21.582C13.7136 21.7262 13.8379 21.858 14.0069 21.9773C14.1759 22.0916 14.3922 22.196 14.6557 22.2905C14.9192 22.3849 15.2324 22.4695 15.5953 22.544L16.8482 22.8125C17.6933 22.9915 18.4167 23.2276 19.0183 23.521C19.6198 23.8143 20.112 24.1598 20.4948 24.5575C20.8777 24.9503 21.1585 25.3928 21.3375 25.8849C21.5215 26.3771 21.6159 26.9141 21.6209 27.4957C21.6159 28.5 21.3649 29.3501 20.8677 30.0462C20.3706 30.7422 19.6596 31.2717 18.7349 31.6346C17.8152 31.9975 16.709 32.179 15.4164 32.179C14.0889 32.179 12.9306 31.9826 11.9412 31.5898C10.9568 31.1971 10.1912 30.593 9.64434 29.7777C9.10244 28.9574 8.829 27.9084 8.82403 26.6307H12.7615C12.7864 27.098 12.9032 27.4908 13.112 27.8089C13.3208 28.1271 13.6142 28.3683 13.992 28.5323C14.3748 28.6964 14.8297 28.7784 15.3567 28.7784C15.7992 28.7784 16.1696 28.7237 16.4679 28.6143C16.7661 28.505 16.9924 28.3533 17.1465 28.1594C17.3006 27.9656 17.3801 27.7443 17.3851 27.4957C17.3801 27.2621 17.3031 27.0582 17.1539 26.8842C17.0098 26.7053 16.7711 26.5462 16.438 26.407C16.1049 26.2628 15.655 26.1286 15.0882 26.0043L13.5669 25.6761C12.2147 25.3828 11.1482 24.8931 10.3677 24.207C9.59214 23.516 9.20684 22.5739 9.21181 21.3807C9.20684 20.4112 9.46537 19.5636 9.98738 18.8377C10.5144 18.1069 11.2427 17.5376 12.1724 17.13C13.1071 16.7223 14.1784 16.5185 15.3865 16.5185C16.6195 16.5185 17.6859 16.7248 18.5857 17.1374C19.4856 17.5501 20.1791 18.1317 20.6664 18.8825C21.1585 19.6282 21.4071 20.5007 21.4121 21.5H17.4448ZM26.9543 16.7273V32H22.8378V16.7273H26.9543ZM34.1501 32.2088C32.9072 32.2088 31.8433 31.9627 30.9584 31.4705C30.0734 30.9734 29.3948 30.2823 28.9225 29.3974C28.4502 28.5075 28.2141 27.4759 28.2141 26.3026C28.2141 25.1293 28.4502 24.1001 28.9225 23.2152C29.3948 22.3253 30.0734 21.6342 30.9584 21.142C31.8433 20.6449 32.9072 20.3963 34.1501 20.3963C35.393 20.3963 36.457 20.6449 37.3419 21.142C38.2268 21.6342 38.9055 22.3253 39.3778 23.2152C39.8501 24.1001 40.0862 25.1293 40.0862 26.3026C40.0862 27.4759 39.8501 28.5075 39.3778 29.3974C38.9055 30.2823 38.2268 30.9734 37.3419 31.4705C36.457 31.9627 35.393 32.2088 34.1501 32.2088ZM34.18 29.1662C34.528 29.1662 34.8288 29.0494 35.0823 28.8157C35.3359 28.582 35.5322 28.2489 35.6714 27.8164C35.8106 27.3839 35.8802 26.8693 35.8802 26.2727C35.8802 25.6712 35.8106 25.1566 35.6714 24.729C35.5322 24.2965 35.3359 23.9634 35.0823 23.7298C34.8288 23.4961 34.528 23.3793 34.18 23.3793C33.8121 23.3793 33.4964 23.4961 33.2329 23.7298C32.9694 23.9634 32.768 24.2965 32.6288 24.729C32.4896 25.1566 32.42 25.6712 32.42 26.2727C32.42 26.8693 32.4896 27.3839 32.6288 27.8164C32.768 28.2489 32.9694 28.582 33.2329 28.8157C33.4964 29.0494 33.8121 29.1662 34.18 29.1662ZM46.8551 32.2088C45.6122 32.2088 44.5483 31.9627 43.6634 31.4705C42.7784 30.9734 42.0998 30.2823 41.6275 29.3974C41.1552 28.5075 40.9191 27.4759 40.9191 26.3026C40.9191 25.1293 41.1552 24.1001 41.6275 23.2152C42.0998 22.3253 42.7784 21.6342 43.6634 21.142C44.5483 20.6449 45.6122 20.3963 46.8551 20.3963C48.098 20.3963 49.162 20.6449 50.0469 21.142C50.9318 21.6342 51.6105 22.3253 52.0828 23.2152C52.5551 24.1001 52.7912 25.1293 52.7912 26.3026C52.7912 27.4759 52.5551 28.5075 52.0828 29.3974C51.6105 30.2823 50.9318 30.9734 50.0469 31.4705C49.162 31.9627 48.098 32.2088 46.8551 32.2088ZM46.885 29.1662C47.233 29.1662 47.5338 29.0494 47.7873 28.8157C48.0409 28.582 48.2372 28.2489 48.3764 27.8164C48.5156 27.3839 48.5853 26.8693 48.5853 26.2727C48.5853 25.6712 48.5156 25.1566 48.3764 24.729C48.2372 24.2965 48.0409 23.9634 47.7873 23.7298C47.5338 23.4961 47.233 23.3793 46.885 23.3793C46.5171 23.3793 46.2014 23.4961 45.9379 23.7298C45.6744 23.9634 45.473 24.2965 45.3338 24.729C45.1946 25.1566 45.125 25.6712 45.125 26.2727C45.125 26.8693 45.1946 27.3839 45.3338 27.8164C45.473 28.2489 45.6744 28.582 45.9379 28.8157C46.2014 29.0494 46.5171 29.1662 46.885 29.1662ZM57.7405 29.2855L57.7704 24.3935H58.3073L61.0814 20.5455H65.705L61.0516 26.5412H59.8883L57.7405 29.2855ZM54.0417 32V16.7273H58.1581V32H54.0417ZM61.1113 32L58.4863 27.4659L61.1709 24.5426L65.8243 32H61.1113ZM85.3191 32H80.8446L85.8858 16.7273H91.5534L96.5946 32H92.1202L88.7793 20.9332H88.66L85.3191 32ZM84.4838 25.9744H92.8958V29.0767H84.4838V25.9744ZM101.792 16.7273V32H97.6456V16.7273H101.792Z" fill="white"/>
<path d="M78.5149 23.0209C78.1783 22.2632 77.689 21.5832 77.0775 21.0233L76.5729 20.5604C76.5558 20.5451 76.5351 20.5342 76.5128 20.5288C76.4905 20.5233 76.4672 20.5234 76.445 20.529C76.4227 20.5347 76.4022 20.5457 76.3852 20.5612C76.3682 20.5766 76.3552 20.596 76.3475 20.6176L76.1221 21.2643C75.9816 21.6701 75.7232 22.0845 75.3574 22.492C75.3331 22.518 75.3053 22.525 75.2863 22.5267C75.2672 22.5284 75.2377 22.525 75.2117 22.5007C75.1874 22.4799 75.1753 22.4487 75.177 22.4174C75.2412 21.3736 74.9291 20.1962 74.2459 18.9148C73.6806 17.8501 72.8951 17.0196 71.9137 16.4404L71.1975 16.0191C71.1039 15.9636 70.9843 16.0364 70.9895 16.1456L71.0276 16.9779C71.0536 17.5467 70.9877 18.0495 70.8317 18.4674C70.6409 18.979 70.367 19.4541 70.0167 19.8806C69.7729 20.1771 69.4967 20.4452 69.1931 20.68C68.4618 21.2421 67.8673 21.9623 67.4539 22.7868C67.0415 23.6184 66.8267 24.534 66.8262 25.4623C66.8262 26.2808 66.9874 27.0732 67.3065 27.8205C67.6146 28.5401 68.0591 29.1931 68.6156 29.7435C69.1775 30.2984 69.8294 30.7354 70.556 31.0388C71.3085 31.3544 72.1061 31.5139 72.9298 31.5139C73.7534 31.5139 74.5511 31.3544 75.3036 31.0405C76.0284 30.7389 76.6874 30.2989 77.2439 29.7453C77.8057 29.1904 78.2462 28.5419 78.5531 27.8223C78.8717 27.077 79.0351 26.2746 79.0334 25.4641C79.0334 24.6179 78.86 23.796 78.5149 23.0209Z" fill="url(#paint0_linear_450_2240)"/>
<defs>
<linearGradient id="paint0_linear_450_2240" x1="72.9298" y1="16" x2="72.9298" y2="31.5139" gradientUnits="userSpaceOnUse">
<stop stop-color="#FFE179"/>
<stop offset="1" stop-color="#C0B29F"/>
</linearGradient>
</defs>
</svg>
